<svg id="SvgjsSvg1001" width="288" height="288" xmlns="http://www.w3.org/2000/svg" version="1.1" xmlns:xlink="http://www.w3.org/1999/xlink" xmlns:svgjs="http://svgjs.com/svgjs"><defs id="SvgjsDefs1002"></defs><g id="SvgjsG1008"><svg xmlns="http://www.w3.org/2000/svg" width="288" height="288" fill="currentColor" class="bi bi-tag-fill" viewBox="0 0 16 16"><path d="M2 1a1 1 0 0 0-1 1v4.586a1 1 0 0 0 .293.707l7 7a1 1 0 0 0 1.414 0l4.586-4.586a1 1 0 0 0 0-1.414l-7-7A1 1 0 0 0 6.586 1H2zm4 3.5a1.5 1.5 0 1 1-3 0 1.5 1.5 0 0 1 3 0z" fill="#ffffff" class="color000 svgShape"></path></svg></g></svg>