<svg id="SvgjsSvg1001" width="288" height="288" xmlns="http://www.w3.org/2000/svg" version="1.1" xmlns:xlink="http://www.w3.org/1999/xlink" xmlns:svgjs="http://svgjs.com/svgjs"><defs id="SvgjsDefs1002"></defs><g id="SvgjsG1008"><svg xmlns="http://www.w3.org/2000/svg" width="288" height="288" fill="currentColor" class="bi bi-image-fill" viewBox="0 0 16 16"><path d="M.002 3a2 2 0 0 1 2-2h12a2 2 0 0 1 2 2v10a2 2 0 0 1-2 2h-12a2 2 0 0 1-2-2V3zm1 9v1a1 1 0 0 0 1 1h12a1 1 0 0 0 1-1V9.5l-3.777-1.947a.5.5 0 0 0-.577.093l-3.71 3.71-2.66-1.772a.5.5 0 0 0-.63.062L1.002 12zm5-6.5a1.5 1.5 0 1 0-3 0 1.5 1.5 0 0 0 3 0z" fill="#ffffff" class="color000 svgShape"></path></svg></g></svg>